<?xml version="1.0" encoding="utf-8"?>
<!-- Generator: Adobe Illustrator 26.0.1, SVG Export Plug-In . SVG Version: 6.00 Build 0)  -->
<svg version="1.1" id="Layer_1" xmlns="http://www.w3.org/2000/svg" xmlns:xlink="http://www.w3.org/1999/xlink" x="0px" y="0px"
	 viewBox="0 0 1088 688" style="enable-background:new 0 0 1088 688;" xml:space="preserve">
<style type="text/css">
	.st0{fill:#3F3D56;}
	.st1{fill:#F2F2F2;}
	.st2{opacity:0.1;enable-background:new    ;}
	.st3{fill:#FF6584;}
	.st4{fill:#2F2E41;}
	.st5{fill:#6C63FF;}
	.st6{fill:#A8A8A8;}
	.st7{opacity:0.2;enable-background:new    ;}
	.st8{fill-rule:evenodd;clip-rule:evenodd;fill:#FFFFFF;}
	.st9{fill-rule:evenodd;clip-rule:evenodd;fill:#3ECC5F;}
	.st10{fill-rule:evenodd;clip-rule:evenodd;fill:#44D860;}
	.st11{fill-rule:evenodd;clip-rule:evenodd;}
	.st12{fill-rule:evenodd;clip-rule:evenodd;fill:#FFFF50;}
	.st13{fill:#D8D8D8;}
	.st14{fill:#4A4A4A;}
	.st15{fill-rule:evenodd;clip-rule:evenodd;fill:#4A4A4A;}
	.st16{opacity:0.136;fill:#D8D8D8;enable-background:new    ;}
</style>
<g id="Group_12" transform="translate(-57 -56)">
	<g id="Group_11" transform="translate(57 56)">
		<path id="Path_83" class="st0" d="M961.8,454.4c-5.3,45.2-16.2,81.4-31.2,110.3c-20,38.5-54.2,54-84.8,70.3
			c-8.8,4.7-18,8.7-27.5,11.9c-55.6,19.3-117.8,14.2-166.7,4c-34.3-7.2-69.1-11.6-104.1-13.2c-10-0.4-20-0.7-30-0.7
			c-15.4,0-293.1,5.3-360.7-131.6c-16.7-33.8-28.1-75-32.2-125.3C113,238.2,176.9,144.8,259.4,83.8c156-115.4,369.8-110.6,523.4,7.9
			C885.2,170.6,981,290,961.8,454.4z"/>
		<path id="Path_84" class="st1" d="M930.6,564.8c-20,38.5-47.2,64-77.8,80.3c-8.8,4.7-18,8.7-27.5,11.9
			c-55.6,19.3-117.8,14.2-166.7,4c-34.3-7.2-69.1-11.6-104.1-13.2c-10-0.4-20-0.7-30-0.7c-15.4,0-30.8,0.6-46.2,1.7
			c-100.2,7.4-253.8-6.4-321.4-143.3L326,178l63,161.6l20.1,51.6l55.4-76L493,276l130.2,149.3L660,344l254.8,207.9l14.2,11.6
			L930.6,564.8z"/>
		<path id="Path_85" class="st2" d="M302,283l26-57l36,83l-31-60L302,283z"/>
		<path id="Path_86" class="st2" d="M554.5,647.8c-10-0.4-20-0.7-30-0.7L409,391.2L554.5,647.8z"/>
		<path id="Path_87" class="st2" d="M464.4,315.2L493,293l130,150L491,315L464.4,315.2z"/>
		<path id="Path_88" class="st2" d="M852.8,645c-8.8,4.7-18,8.7-27.5,11.9L623.2,425.2L852.8,645z"/>
		<circle id="Ellipse_11" class="st1" cx="482" cy="102" r="3"/>
		<circle id="Ellipse_12" class="st1" cx="399" cy="205" r="3"/>
		<circle id="Ellipse_13" class="st1" cx="602" cy="223" r="2"/>
		<circle id="Ellipse_14" class="st1" cx="182" cy="268" r="2"/>
		<circle id="Ellipse_15" class="st1" cx="614" cy="99" r="2"/>
		<circle id="Ellipse_16" class="st1" cx="738" cy="195" r="2"/>
		<circle id="Ellipse_17" class="st1" cx="860" cy="347" r="2"/>
		<path id="Path_89" class="st1" d="M306,121.2h-2.8v-2.8h-1.5v2.8H299v1.5h2.8v2.8h1.5v-2.8h2.8L306,121.2L306,121.2z"/>
		<path id="Path_90" class="st1" d="M848,424.2h-2.8v-2.8h-1.5v2.8H841v1.5h2.8v2.8h1.5v-2.8h2.8L848,424.2L848,424.2z"/>
		<path id="Path_91" class="st0" d="M1088,614c0,16.6-243.6,74-544,74S0,630.5,0,614s243.6,14,544,14S1088,597.4,1088,614z"/>
		<path id="Path_92" class="st2" d="M1088,614c0,16.6-243.6,74-544,74S0,630.5,0,614s243.6,14,544,14S1088,597.4,1088,614z"/>
		<ellipse id="Ellipse_18" class="st0" cx="544" cy="614" rx="544" ry="30"/>
		<path id="Path_93" class="st3" d="M568,572c0,33.1-14.8,24-33,24s-33,9.1-33-24s33-96,33-96S568,538.8,568,572z"/>
		<path id="Path_94" class="st2" d="M550,584.6c0,15.1-6.7,10.9-15,10.9s-15,4.2-15-10.9s15-43.6,15-43.6S550,569.6,550,584.6z"/>
		<path id="Rectangle_97" class="st4" d="M498,605h74c5,0,9,4,9,9l0,0c0,5-4,9-9,9h-74c-5,0-9-4-9-9l0,0C489,609,493,605,498,605z"
			/>
		<path id="Rectangle_98" class="st4" d="M498,587h74c5,0,9,4,9,9l0,0c0,5-4,9-9,9h-74c-5,0-9-4-9-9l0,0C489,591,493,587,498,587z"
			/>
		<path id="Path_95" class="st0" d="M137,490.5c0,55.3,34.7,100.1,77.6,100.1"/>
		<path id="Path_96" class="st5" d="M214.6,590.7c0-56,38.7-101.3,86.6-101.3"/>
		<path id="Path_97" class="st5" d="M165.1,495.5c0,52.6,22.1,95.1,49.5,95.1"/>
		<path id="Path_98" class="st0" d="M214.6,590.7c0-71.5,44.8-129.4,100.1-129.4"/>
		<path id="Path_99" class="st6" d="M198.3,591.4c0,0,11-0.3,14.3-2.7s16.9-5.2,17.8-1.4s16.5,18.8,4.1,18.9s-28.9-1.9-32.2-4
			S198.3,591.4,198.3,591.4z"/>
		<path id="Path_100" class="st7" d="M234.7,604.9c-12.4,0.1-28.9-1.9-32.2-4c-2.5-1.5-3.5-7-3.9-9.6h-0.4c0,0,0.7,8.9,4,10.9
			s19.8,4.1,32.2,4c3.6,0,4.8-1.3,4.8-3.2C238.8,604.2,237.4,604.9,234.7,604.9z"/>
		<path id="Path_101" class="st0" d="M721.4,527.1c0,38,23.9,68.8,53.3,68.8"/>
		<path id="Path_102" class="st5" d="M774.8,595.9c0-38.5,26.6-69.6,59.5-69.6"/>
		<path id="Path_103" class="st5" d="M740.8,530.5c0,36.1,15.2,65.4,34,65.4"/>
		<path id="Path_104" class="st0" d="M774.8,595.9c0-49.1,30.8-88.9,68.8-88.9"/>
		<path id="Path_105" class="st6" d="M763.5,596.3c0,0,7.6-0.2,9.8-1.9s11.6-3.6,12.2-1s11.4,12.9,2.8,13s-19.8-1.3-22.1-2.7
			S763.5,596.3,763.5,596.3z"/>
		<path id="Path_106" class="st7" d="M788.6,605.6c-8.5,0.1-19.8-1.3-22.1-2.7c-1.7-1.1-2.4-4.8-2.7-6.6h-0.3c0,0,0.5,6.1,2.8,7.5
			s13.6,2.8,22.1,2.7c2.5,0,3.3-0.9,3.3-2.2C791.3,605.1,790.4,605.6,788.6,605.6z"/>
		<path id="Path_107" class="st6" d="M893.8,618.7c0,0,11.4-1.7,14.5-4.6s16.9-7.5,18.2-3.7s19.5,17.4,6.6,19.1s-30.2,1.6-33.8-0.1
			S893.8,618.7,893.8,618.7z"/>
		<path id="Path_108" class="st7" d="M933.2,628.2c-12.9,1.7-30.2,1.6-33.8-0.1c-2.8-1.3-4.5-6.9-5.2-9.5l-0.4,0.1
			c0,0,1.8,9.1,5.5,10.8s21,1.7,33.8,0.1c3.7-0.5,4.8-2,4.5-3.9C937.3,626.9,936,627.8,933.2,628.2z"/>
		<path id="Path_109" class="st6" d="M614.3,617.9c0,0,9.6-1.5,12.2-3.9s14.3-6.3,15.4-3.1s16.5,14.7,5.6,16.1s-25.4,1.4-28.6-0.1
			S614.3,617.9,614.3,617.9z"/>
		<path id="Path_110" class="st7" d="M647.5,625.9c-10.9,1.4-25.4,1.4-28.6-0.1c-2.4-1.1-3.8-5.8-4.4-8l-0.3,0.1
			c0,0,1.5,7.7,4.7,9.1s17.7,1.5,28.6,0.1c3.1-0.4,4.1-1.7,3.8-3.3C651,624.8,649.9,625.6,647.5,625.9z"/>
		<path id="Path_111" class="st6" d="M122.4,613.1c0,0,7.5-1.1,9.5-3s11.1-4.9,12-2.4s12.8,11.5,4.4,12.6s-19.8,1.1-22.2,0
			S122.4,613.1,122.4,613.1z"/>
		<path id="Path_112" class="st7" d="M148.3,619.3c-8.4,1.1-19.8,1.1-22.2,0c-1.8-0.8-3-4.5-3.4-6.2h-0.2c0,0,1.2,6,3.6,7.1
			c2.4,1.1,13.8,1.1,22.2,0c2.4-0.3,3.2-1.3,3-2.6C151,618.5,150.1,619.1,148.3,619.3z"/>
		<path id="Path_113" class="st2" d="M383.7,601.3c0,30.2-42.1,20.9-93.7,20.9s-93.1,9.3-93.1-20.9s42.1-36.8,93.7-36.8
			S383.7,571.1,383.7,601.3z"/>
		<path id="Path_114" class="st0" d="M383.7,593.9c0,30.2-42.1,20.9-93.7,20.9s-93.1,9.3-93.1-20.9s42.1-36.8,93.7-36.8
			S383.7,563.7,383.7,593.9z"/>
	</g>
	<g id="docusaurus_keytar" transform="translate(312.271 493.733)">
		<path id="Path_40" class="st8" d="M104.9,38h91.8v37.2h-91.8C104.9,75.2,104.9,38,104.9,38z"/>
		<path id="Path_41" class="st9" d="M21.9,159.3c-7.8,0-15-4.2-18.9-10.9c-6,10.4-2.5,23.8,7.9,29.8c3.3,1.9,7.1,3,11,2.9h21.9
			v-21.9L21.9,159.3L21.9,159.3z"/>
		<path id="Path_42" class="st9" d="M120.2,43.9l76.5-4.8V28.2c0-12.1-9.8-21.9-21.9-21.9l0,0H76.5l-2.7-4.7c-0.9-1.5-2.8-2-4.3-1.2
			c-0.5,0.3-0.9,0.7-1.2,1.2l-2.7,4.7l-2.7-4.7c-0.9-1.5-2.8-2-4.3-1.2c-0.5,0.3-0.9,0.7-1.2,1.2l-2.7,4.7L52,1.6
			c-0.9-1.5-2.8-2-4.3-1.2c-0.5,0.3-0.9,0.7-1.2,1.2l-2.7,4.7c0,0,0,0-0.1,0l-4.5-4.5c-1.2-1.2-3.2-1.2-4.5,0
			c-0.4,0.4-0.7,0.9-0.8,1.4l-1.5,5.6l-5.7-1.5c-1.7-0.5-3.4,0.5-3.9,2.2c-0.1,0.5-0.1,1.1,0,1.6l1.5,5.7l-5.6,1.5
			c-1.7,0.5-2.7,2.2-2.2,3.9c0.1,0.5,0.4,1,0.8,1.4l4.5,4.5c0,0,0,0,0,0.1l-4.7,2.7c-1.5,0.9-2,2.8-1.2,4.3c0.3,0.5,0.7,0.9,1.2,1.2
			l4.7,2.7l-4.7,2.7c-1.5,0.9-2,2.8-1.2,4.3c0.3,0.5,0.7,0.9,1.2,1.2l4.7,2.7l-4.7,2.7c-1.5,0.9-2,2.8-1.2,4.3
			c0.3,0.5,0.7,0.9,1.2,1.2l4.7,2.7l-4.7,2.7c-1.5,0.9-2,2.8-1.2,4.3c0.3,0.5,0.7,0.9,1.2,1.2l4.7,2.7l-4.7,2.7
			c-1.5,0.9-2,2.8-1.2,4.3c0.3,0.5,0.7,0.9,1.2,1.2l4.7,2.7l-4.7,2.7c-1.5,0.9-2,2.8-1.2,4.3c0.3,0.5,0.7,0.9,1.2,1.2l4.7,2.7
			l-4.7,2.7c-1.5,0.9-2,2.8-1.2,4.3c0.3,0.5,0.7,0.9,1.2,1.2l4.7,2.7l-4.7,2.7c-1.5,0.9-2,2.8-1.2,4.3c0.3,0.5,0.7,0.9,1.2,1.2
			l4.7,2.7l-4.7,2.7c-1.5,0.9-2,2.8-1.2,4.3c0.3,0.5,0.7,0.9,1.2,1.2l4.7,2.7l-4.7,2.7c-1.5,0.9-2,2.8-1.2,4.3
			c0.3,0.5,0.7,0.9,1.2,1.2l4.7,2.7l-4.7,2.7c-1.5,0.9-2,2.8-1.2,4.3c0.3,0.5,0.7,0.9,1.2,1.2l4.7,2.7l-4.7,2.7
			c-1.5,0.9-2,2.8-1.2,4.3c0.3,0.5,0.7,0.9,1.2,1.2l4.7,2.7c0,12.1,9.8,21.9,21.9,21.9l0,0h131.1c12.1,0,21.9-9.8,21.9-21.9l0,0
			V71.9l-76.5-4.8c-6.4-0.4-11.3-5.9-10.9-12.3C109.7,48.9,114.3,44.2,120.2,43.9"/>
		<path id="Path_43" class="st9" d="M153,181.1h32.8v-43.7H153V181.1z"/>
		<path id="Path_44" class="st10" d="M207.6,153.8c-0.2,0-0.5,0-0.7,0.1c0-0.2-0.1-0.3-0.1-0.5c2.8-1.1,4.1-4.3,3-7.1
			s-4.3-4.1-7.1-3c-0.5,0.2-0.9,0.4-1.3,0.7c-0.1-0.1-0.2-0.2-0.4-0.4c1.8-2.4,1.3-5.8-1.1-7.6c-2.4-1.8-5.8-1.3-7.6,1.1
			c-0.3,0.4-0.5,0.7-0.7,1.2c-0.2,0-0.3-0.1-0.5-0.1c0.5-3-1.5-5.8-4.5-6.3s-5.8,1.5-6.3,4.5c-0.1,0.6-0.1,1.2,0,1.8
			c-0.2,0-0.3,0.1-0.5,0.1c-1.2-2.8-4.4-4.1-7.1-2.9c-2.8,1.2-4.1,4.4-2.9,7.1c0.2,0.4,0.4,0.8,0.7,1.2c-8.6,8.4-8.8,22.3-0.4,30.9
			s22.3,8.8,30.9,0.4c2.9-2.8,4.9-6.4,5.9-10.3c3,0.4,5.7-1.7,6.1-4.7c0.4-3-1.7-5.7-4.7-6.1C208.1,153.8,207.9,153.8,207.6,153.8"
			/>
		<path id="Path_45" class="st9" d="M163.9,115.6h32.8V93.7h-32.8V115.6z"/>
		<path id="Path_46" class="st10" d="M207.6,107.4c1.5,0,2.7-1.2,2.7-2.7s-1.2-2.7-2.7-2.7l0,0c-0.1,0-0.2,0-0.3,0
			c0-0.1,0-0.2-0.1-0.2c1.4-0.6,2-2.2,1.5-3.6c-0.4-1-1.4-1.7-2.5-1.7c-0.6,0-1.2,0.2-1.6,0.6c-0.1-0.1-0.1-0.1-0.2-0.2
			c0.4-0.5,0.6-1,0.6-1.6c0-1.5-1.2-2.7-2.7-2.7c-1.1,0-2.1,0.7-2.5,1.7c-5.8-1.6-11.8,1.7-13.5,7.5c-1.6,5.8,1.7,11.8,7.5,13.5
			c1.9,0.6,4,0.6,5.9,0c0.6,1.4,2.2,2,3.6,1.4c1-0.4,1.7-1.4,1.7-2.5c0-0.6-0.2-1.2-0.6-1.6c0.1-0.1,0.1-0.1,0.2-0.2
			c0.5,0.4,1.1,0.6,1.6,0.6c1.5,0,2.7-1.2,2.7-2.7c0-1.1-0.7-2.1-1.7-2.5c0-0.1,0-0.2,0.1-0.2C207.4,107.4,207.5,107.4,207.6,107.4"
			/>
		<path id="Path_47" class="st11" d="M65.6,41.8c-1.5,0-2.7-1.2-2.7-2.7c-0.1-4.5-3.9-8.1-8.5-7.9c-4.3,0.1-7.8,3.6-7.9,7.9
			c0,1.5-1.2,2.7-2.7,2.7s-2.7-1.2-2.7-2.7l0,0c0-7.5,6.1-13.7,13.7-13.7s13.7,6.1,13.7,13.7C68.3,40.6,67.1,41.8,65.6,41.8
			L65.6,41.8"/>
		<path id="Path_48" class="st12" d="M109.3,181.1h65.6c12.1,0,21.9-9.8,21.9-21.9l0,0V82.8h-65.6c-12.1,0-21.9,9.8-21.9,21.9l0,0
			L109.3,181.1L109.3,181.1z"/>
		<path id="Path_49" class="st11" d="M180.3,116.7h-54.7c-0.6,0-1.1-0.5-1.1-1.1s0.5-1.1,1.1-1.1c0,0,0,0,0.1,0h54.7
			c0.6,0,1.1,0.5,1.1,1.1C181.4,116.2,180.9,116.7,180.3,116.7 M180.3,138.5h-54.7c-0.6,0-1.1-0.5-1.1-1.1s0.5-1.1,1.1-1.1h54.7
			c0.6,0,1.1,0.5,1.1,1.1S180.9,138.5,180.3,138.5 M180.3,160.4h-54.7c-0.6,0-1.1-0.5-1.1-1.1s0.5-1.1,1.1-1.1c0,0,0,0,0.1,0h54.7
			c0.6,0,1.1,0.5,1.1,1.1C181.4,159.9,180.9,160.4,180.3,160.4 M180.3,106h-54.7c-0.6,0-1.1-0.5-1.1-1.1s0.5-1.1,1.1-1.1
			c0,0,0,0,0.1,0h54.7c0.6,0,1.1,0.5,1.1,1.1C181.4,105.5,180.9,105.9,180.3,106 M180.3,127.6h-54.7c-0.6,0-1.1-0.5-1.1-1.1
			s0.5-1.1,1.1-1.1h54.7c0.6,0,1.1,0.5,1.1,1.1S180.9,127.6,180.3,127.6 M180.3,149.5h-54.7c-0.6,0-1.1-0.5-1.1-1.1s0.5-1.1,1.1-1.1
			h54.7c0.6,0,1.1,0.5,1.1,1.1S180.9,149.5,180.3,149.5 M196.7,48.5L196.7,48.5c-3.4,0.1-5,3.5-6.4,6.5c-1.5,3.1-2.6,5.1-4.5,5.1
			c-2.1-0.1-3.2-2.4-4.5-4.9c-1.4-2.8-3.1-6-6.5-5.9c-3.3,0.1-4.9,3.1-6.3,5.6c-1.5,2.8-2.5,4.4-4.5,4.4c-2.1-0.1-3.2-2-4.5-4.2
			c-1.4-2.4-3.1-5.2-6.5-5.1c-3.3,0.1-4.9,2.6-6.3,4.8c-1.5,2.3-2.6,3.7-4.6,3.7c-2.2-0.1-3.3-1.7-4.6-3.5c-1.4-2-3.1-4.4-6.4-4.3
			c-3.2,0.1-4.8,2.2-6.2,4c-1.3,1.7-2.4,3.1-4.6,3c-0.6,0-1.1,0.4-1.1,1.1s0.4,1.1,1.1,1.1c3.3,0.1,5-2,6.4-3.8
			c1.3-1.6,2.4-3,4.6-3.1c2.1-0.1,3.1,1.2,4.6,3.3c1.4,2,3,4.3,6.3,4.4c3.4,0.1,5-2.4,6.5-4.7c1.3-2,2.4-3.7,4.5-3.8
			c2-0.1,3,1.5,4.5,4c1.4,2.4,3,5.1,6.3,5.2c3.4,0.1,5.1-2.9,6.5-5.5c1.2-2.3,2.4-4.4,4.5-4.5c2,0,3,1.7,4.5,4.7
			c1.4,2.8,3,5.9,6.4,6.1h0.2c3.3,0,4.9-3.4,6.3-6.3c1.2-2.6,2.4-5.1,4.4-5.2L196.7,48.5z"/>
		<path id="Path_50" class="st9" d="M87.4,181.1h43.7v-43.7H87.4V181.1z"/>
		<g id="Group_8" transform="matrix(0.966, -0.259, 0.259, 0.966, 109.327, 91.085)">
			<path id="Rectangle_3" class="st13" d="M2,0l88.4,0c1.1,0,2,0.9,2,2v32.5c0,1.1-0.9,2-2,2H2c-1.1,0-2-0.9-2-2L0,2
				C0,0.9,0.9,0,2,0z"/>
			<g id="Group_2" transform="translate(1.531 23.03)">
				<path id="Rectangle_4" class="st14" d="M17.8,0l3.3,0c0.6,0,1,0.4,1,1v3.3c0,0.6-0.4,1-1,1h-3.3c-0.6,0-1-0.4-1-1V1
					C16.8,0.4,17.2,0,17.8,0z"/>
				<path id="Rectangle_5" class="st14" d="M24.1,0l3.3,0c0.6,0,1,0.4,1,1v3.3c0,0.6-0.4,1-1,1h-3.3c-0.6,0-1-0.4-1-1V1
					C23.1,0.4,23.6,0,24.1,0z"/>
				<path id="Rectangle_6" class="st14" d="M30.4,0l3.3,0c0.6,0,1,0.4,1,1v3.3c0,0.6-0.4,1-1,1h-3.3c-0.6,0-1-0.4-1-1V1
					C29.4,0.4,29.9,0,30.4,0z"/>
				<path id="Rectangle_7" class="st14" d="M36.8,0l3.3,0c0.6,0,1,0.4,1,1v3.3c0,0.6-0.4,1-1,1h-3.3c-0.6,0-1-0.4-1-1V1
					C35.8,0.4,36.2,0,36.8,0z"/>
				<path id="Rectangle_8" class="st14" d="M43.1,0l3.3,0c0.6,0,1,0.4,1,1v3.3c0,0.6-0.4,1-1,1h-3.3c-0.6,0-1-0.4-1-1V1
					C42.1,0.4,42.5,0,43.1,0z"/>
				<path id="Rectangle_9" class="st14" d="M49.4,0l3.3,0c0.6,0,1,0.4,1,1v3.3c0,0.6-0.4,1-1,1h-3.3c-0.6,0-1-0.4-1-1V1
					C48.4,0.4,48.9,0,49.4,0z"/>
				<path id="Rectangle_10" class="st14" d="M55.7,0L59,0c0.6,0,1,0.4,1,1v3.3c0,0.6-0.4,1-1,1h-3.3c-0.6,0-1-0.4-1-1V1
					C54.7,0.4,55.2,0,55.7,0z"/>
				<path id="Rectangle_11" class="st14" d="M62.1,0l3.3,0c0.6,0,1,0.4,1,1v3.3c0,0.6-0.4,1-1,1h-3.3c-0.6,0-1-0.4-1-1V1
					C61.1,0.4,61.5,0,62.1,0z"/>
				<path id="Rectangle_12" class="st14" d="M68.4,0l3.3,0c0.6,0,1,0.4,1,1v3.3c0,0.6-0.4,1-1,1h-3.3c-0.6,0-1-0.4-1-1V1
					C67.4,0.4,67.8,0,68.4,0z"/>
				<path id="Path_51" class="st15" d="M1.1,0l13.4,0c0.6,0,1.1,0.5,1.1,1.1l0,0v3.1c0,0.6-0.5,1.1-1.1,1.1l0,0l-13.4,0
					C0.5,5.3,0,4.8,0,4.2l0-3.1C0,0.5,0.5,0,1.1,0L1.1,0z M75,0l13.4,0c0.6,0,1.1,0.5,1.1,1.1l0,0v3.2c0,0.6-0.5,1.1-1.1,1.1l0,0H75
					c-0.6,0-1.1-0.5-1.1-1.1l0,0V1.1C73.9,0.5,74.4,0,75,0L75,0z"/>
			</g>
			<g id="Group_3" transform="translate(1.531 10.261)">
				<path id="Path_52" class="st15" d="M1.1,0l5.1,0c0.6,0,1.1,0.5,1.1,1.1v3.1c0,0.6-0.5,1.1-1.1,1.1H1.1C0.5,5.3,0,4.8,0,4.2
					l0-3.1C0,0.5,0.5,0,1.1,0L1.1,0z"/>
				<path id="Rectangle_13" class="st14" d="M9.3,0l3.3,0c0.6,0,1,0.4,1,1v3.3c0,0.6-0.4,1-1,1H9.3c-0.6,0-1-0.4-1-1V1
					C8.3,0.4,8.7,0,9.3,0z"/>
				<path id="Rectangle_14" class="st14" d="M15.6,0L19,0c0.6,0,1,0.4,1,1v3.3c0,0.6-0.4,1-1,1h-3.3c-0.6,0-1-0.4-1-1V1
					C14.6,0.4,15.1,0,15.6,0z"/>
				<path id="Rectangle_15" class="st14" d="M21.9,0l3.3,0c0.6,0,1,0.4,1,1v3.3c0,0.6-0.4,1-1,1h-3.3c-0.6,0-1-0.4-1-1V1
					C20.9,0.4,21.4,0,21.9,0z"/>
				<path id="Rectangle_16" class="st14" d="M28.3,0l3.3,0c0.6,0,1,0.4,1,1v3.3c0,0.6-0.4,1-1,1h-3.3c-0.6,0-1-0.4-1-1V1
					C27.3,0.4,27.7,0,28.3,0z"/>
				<path id="Rectangle_17" class="st14" d="M34.6,0l3.3,0c0.6,0,1,0.4,1,1v3.3c0,0.6-0.4,1-1,1h-3.3c-0.6,0-1-0.4-1-1V1
					C33.6,0.4,34,0,34.6,0z"/>
				<path id="Rectangle_18" class="st14" d="M40.9,0l3.3,0c0.6,0,1,0.4,1,1v3.3c0,0.6-0.4,1-1,1h-3.3c-0.6,0-1-0.4-1-1V1
					C39.9,0.4,40.4,0,40.9,0z"/>
				<path id="Rectangle_19" class="st14" d="M47.2,0l3.3,0c0.6,0,1,0.4,1,1v3.3c0,0.6-0.4,1-1,1h-3.3c-0.6,0-1-0.4-1-1V1
					C46.2,0.4,46.7,0,47.2,0z"/>
				<path id="Rectangle_20" class="st14" d="M53.6,0l3.3,0c0.6,0,1,0.4,1,1v3.3c0,0.6-0.4,1-1,1h-3.3c-0.6,0-1-0.4-1-1V1
					C52.6,0.4,53,0,53.6,0z"/>
				<path id="Rectangle_21" class="st14" d="M59.9,0l3.3,0c0.6,0,1,0.4,1,1v3.3c0,0.6-0.4,1-1,1h-3.3c-0.6,0-1-0.4-1-1V1
					C58.9,0.4,59.3,0,59.9,0z"/>
				<path id="Rectangle_22" class="st14" d="M66.2,0l3.3,0c0.6,0,1,0.4,1,1v3.3c0,0.6-0.4,1-1,1h-3.3c-0.6,0-1-0.4-1-1V1
					C65.2,0.4,65.7,0,66.2,0z"/>
				<path id="Rectangle_23" class="st14" d="M72.5,0l3.3,0c0.6,0,1,0.4,1,1v3.3c0,0.6-0.4,1-1,1h-3.3c-0.6,0-1-0.4-1-1V1
					C71.5,0.4,72,0,72.5,0z"/>
				<path id="Rectangle_24" class="st14" d="M78.9,0l3.3,0c0.6,0,1,0.4,1,1v3.3c0,0.6-0.4,1-1,1h-3.3c-0.6,0-1-0.4-1-1V1
					C77.9,0.4,78.3,0,78.9,0z"/>
				<path id="Rectangle_25" class="st14" d="M85.2,0l3.3,0c0.6,0,1,0.4,1,1v3.3c0,0.6-0.4,1-1,1h-3.3c-0.6,0-1-0.4-1-1V1
					C84.2,0.4,84.6,0,85.2,0z"/>
			</g>
			<g id="Group_4" transform="translate(91.05 9.546) rotate(180)">
				<path id="Path_53" class="st15" d="M1.1,0l5.1,0c0.6,0,1.1,0.5,1.1,1.1v3.2c0,0.6-0.5,1.1-1.1,1.1H1.1C0.5,5.3,0,4.8,0,4.2
					l0-3.1C0,0.5,0.5,0,1.1,0L1.1,0z"/>
				<path id="Rectangle_26" class="st14" d="M9.3,0l3.3,0c0.6,0,1,0.4,1,1v3.3c0,0.6-0.4,1-1,1H9.3c-0.6,0-1-0.4-1-1V1
					C8.3,0.4,8.7,0,9.3,0z"/>
				<path id="Rectangle_27" class="st14" d="M15.6,0L19,0c0.6,0,1,0.4,1,1v3.3c0,0.6-0.4,1-1,1h-3.3c-0.6,0-1-0.4-1-1V1
					C14.6,0.4,15.1,0,15.6,0z"/>
				<path id="Rectangle_28" class="st14" d="M21.9,0l3.3,0c0.6,0,1,0.4,1,1v3.3c0,0.6-0.4,1-1,1h-3.3c-0.6,0-1-0.4-1-1V1
					C20.9,0.4,21.4,0,21.9,0z"/>
				<path id="Rectangle_29" class="st14" d="M28.3,0l3.3,0c0.6,0,1,0.4,1,1v3.3c0,0.6-0.4,1-1,1h-3.3c-0.6,0-1-0.4-1-1V1
					C27.3,0.4,27.7,0,28.3,0z"/>
				<path id="Rectangle_30" class="st14" d="M34.6,0l3.3,0c0.6,0,1,0.4,1,1v3.3c0,0.6-0.4,1-1,1h-3.3c-0.6,0-1-0.4-1-1V1
					C33.6,0.4,34,0,34.6,0z"/>
				<path id="Rectangle_31" class="st14" d="M40.9,0l3.3,0c0.6,0,1,0.4,1,1v3.3c0,0.6-0.4,1-1,1h-3.3c-0.6,0-1-0.4-1-1V1
					C39.9,0.4,40.4,0,40.9,0z"/>
				<path id="Rectangle_32" class="st14" d="M47.2,0l3.3,0c0.6,0,1,0.4,1,1v3.3c0,0.6-0.4,1-1,1h-3.3c-0.6,0-1-0.4-1-1V1
					C46.2,0.4,46.7,0,47.2,0z"/>
				<path id="Rectangle_33" class="st14" d="M53.6,0l3.3,0c0.6,0,1,0.4,1,1v3.3c0,0.6-0.4,1-1,1h-3.3c-0.6,0-1-0.4-1-1V1
					C52.6,0.4,53,0,53.6,0z"/>
				<path id="Rectangle_34" class="st14" d="M59.9,0l3.3,0c0.6,0,1,0.4,1,1v3.3c0,0.6-0.4,1-1,1h-3.3c-0.6,0-1-0.4-1-1V1
					C58.9,0.4,59.3,0,59.9,0z"/>
				<path id="Rectangle_35" class="st14" d="M66.2,0l3.3,0c0.6,0,1,0.4,1,1v3.3c0,0.6-0.4,1-1,1h-3.3c-0.6,0-1-0.4-1-1V1
					C65.2,0.4,65.7,0,66.2,0z"/>
				<path id="Rectangle_36" class="st14" d="M72.5,0l3.3,0c0.6,0,1,0.4,1,1v3.3c0,0.6-0.4,1-1,1h-3.3c-0.6,0-1-0.4-1-1V1
					C71.5,0.4,72,0,72.5,0z"/>
				<path id="Rectangle_37" class="st14" d="M78.9,0l3.3,0c0.6,0,1,0.4,1,1v3.3c0,0.6-0.4,1-1,1h-3.3c-0.6,0-1-0.4-1-1V1
					C77.9,0.4,78.3,0,78.9,0z"/>
				<path id="Rectangle_38" class="st14" d="M85.2,0l3.3,0c0.6,0,1,0.4,1,1v3.3c0,0.6-0.4,1-1,1h-3.3c-0.6,0-1-0.4-1-1V1
					C84.2,0.4,84.6,0,85.2,0z"/>
				<path id="Rectangle_39" class="st14" d="M9.3,0l3.3,0c0.6,0,1,0.4,1,1v3.3c0,0.6-0.4,1-1,1H9.3c-0.6,0-1-0.4-1-1V1
					C8.3,0.4,8.7,0,9.3,0z"/>
				<path id="Rectangle_40" class="st14" d="M15.6,0L19,0c0.6,0,1,0.4,1,1v3.3c0,0.6-0.4,1-1,1h-3.3c-0.6,0-1-0.4-1-1V1
					C14.6,0.4,15.1,0,15.6,0z"/>
				<path id="Rectangle_41" class="st14" d="M21.9,0l3.3,0c0.6,0,1,0.4,1,1v3.3c0,0.6-0.4,1-1,1h-3.3c-0.6,0-1-0.4-1-1V1
					C20.9,0.4,21.4,0,21.9,0z"/>
				<path id="Rectangle_42" class="st14" d="M28.3,0l3.3,0c0.6,0,1,0.4,1,1v3.3c0,0.6-0.4,1-1,1h-3.3c-0.6,0-1-0.4-1-1V1
					C27.3,0.4,27.7,0,28.3,0z"/>
				<path id="Rectangle_43" class="st14" d="M34.6,0l3.3,0c0.6,0,1,0.4,1,1v3.3c0,0.6-0.4,1-1,1h-3.3c-0.6,0-1-0.4-1-1V1
					C33.6,0.4,34,0,34.6,0z"/>
				<path id="Rectangle_44" class="st14" d="M40.9,0l3.3,0c0.6,0,1,0.4,1,1v3.3c0,0.6-0.4,1-1,1h-3.3c-0.6,0-1-0.4-1-1V1
					C39.9,0.4,40.4,0,40.9,0z"/>
				<path id="Rectangle_45" class="st14" d="M47.2,0l3.3,0c0.6,0,1,0.4,1,1v3.3c0,0.6-0.4,1-1,1h-3.3c-0.6,0-1-0.4-1-1V1
					C46.2,0.4,46.7,0,47.2,0z"/>
				<path id="Rectangle_46" class="st14" d="M53.6,0l3.3,0c0.6,0,1,0.4,1,1v3.3c0,0.6-0.4,1-1,1h-3.3c-0.6,0-1-0.4-1-1V1
					C52.6,0.4,53,0,53.6,0z"/>
				<path id="Rectangle_47" class="st14" d="M59.9,0l3.3,0c0.6,0,1,0.4,1,1v3.3c0,0.6-0.4,1-1,1h-3.3c-0.6,0-1-0.4-1-1V1
					C58.9,0.4,59.3,0,59.9,0z"/>
				<path id="Rectangle_48" class="st14" d="M66.2,0l3.3,0c0.6,0,1,0.4,1,1v3.3c0,0.6-0.4,1-1,1h-3.3c-0.6,0-1-0.4-1-1V1
					C65.2,0.4,65.7,0,66.2,0z"/>
				<path id="Rectangle_49" class="st14" d="M72.5,0l3.3,0c0.6,0,1,0.4,1,1v3.3c0,0.6-0.4,1-1,1h-3.3c-0.6,0-1-0.4-1-1V1
					C71.5,0.4,72,0,72.5,0z"/>
				<path id="Rectangle_50" class="st14" d="M78.9,0l3.3,0c0.6,0,1,0.4,1,1v3.3c0,0.6-0.4,1-1,1h-3.3c-0.6,0-1-0.4-1-1V1
					C77.9,0.4,78.3,0,78.9,0z"/>
				<path id="Rectangle_51" class="st14" d="M85.2,0l3.3,0c0.6,0,1,0.4,1,1v3.3c0,0.6-0.4,1-1,1h-3.3c-0.6,0-1-0.4-1-1V1
					C84.2,0.4,84.6,0,85.2,0z"/>
			</g>
			<g id="Group_6" transform="translate(1.531 16.584)">
				<path id="Path_54" class="st15" d="M1.1,0l7.3,0C9,0,9.5,0.5,9.5,1.1v3.2c0,0.6-0.5,1.1-1.1,1.1H1.1C0.5,5.3,0,4.8,0,4.2l0-3.1
					C0,0.5,0.5,0,1.1,0L1.1,0z"/>
				<g id="Group_5" transform="translate(10.671 0)">
					<path id="Rectangle_52" class="st14" d="M1,0l3.3,0c0.6,0,1,0.4,1,1v3.3c0,0.6-0.4,1-1,1H1c-0.6,0-1-0.4-1-1L0,1
						C0,0.4,0.4,0,1,0z"/>
					<path id="Rectangle_53" class="st14" d="M7.3,0l3.3,0c0.6,0,1,0.4,1,1v3.3c0,0.6-0.4,1-1,1H7.3c-0.6,0-1-0.4-1-1V1
						C6.3,0.4,6.8,0,7.3,0z"/>
					<path id="Rectangle_54" class="st14" d="M13.6,0L17,0c0.6,0,1,0.4,1,1v3.3c0,0.6-0.4,1-1,1h-3.3c-0.6,0-1-0.4-1-1V1
						C12.6,0.4,13.1,0,13.6,0z"/>
					<path id="Rectangle_55" class="st14" d="M20,0l3.3,0c0.6,0,1,0.4,1,1v3.3c0,0.6-0.4,1-1,1H20c-0.6,0-1-0.4-1-1V1
						C19,0.4,19.4,0,20,0z"/>
					<path id="Rectangle_56" class="st14" d="M26.3,0l3.3,0c0.6,0,1,0.4,1,1v3.3c0,0.6-0.4,1-1,1h-3.3c-0.6,0-1-0.4-1-1V1
						C25.3,0.4,25.7,0,26.3,0z"/>
					<path id="Rectangle_57" class="st14" d="M32.6,0L36,0c0.6,0,1,0.4,1,1v3.3c0,0.6-0.4,1-1,1h-3.3c-0.6,0-1-0.4-1-1V1
						C31.6,0.4,32.1,0,32.6,0z"/>
					<path id="Rectangle_58" class="st14" d="M38.9,0l3.3,0c0.6,0,1,0.4,1,1v3.3c0,0.6-0.4,1-1,1h-3.3c-0.6,0-1-0.4-1-1V1
						C37.9,0.4,38.4,0,38.9,0z"/>
					<path id="Rectangle_59" class="st14" d="M45.3,0l3.3,0c0.6,0,1,0.4,1,1v3.3c0,0.6-0.4,1-1,1h-3.3c-0.6,0-1-0.4-1-1V1
						C44.3,0.4,44.7,0,45.3,0z"/>
					<path id="Rectangle_60" class="st14" d="M51.6,0l3.3,0c0.6,0,1,0.4,1,1v3.3c0,0.6-0.4,1-1,1h-3.3c-0.6,0-1-0.4-1-1V1
						C50.6,0.4,51,0,51.6,0z"/>
					<path id="Rectangle_61" class="st14" d="M57.9,0l3.3,0c0.6,0,1,0.4,1,1v3.3c0,0.6-0.4,1-1,1h-3.3c-0.6,0-1-0.4-1-1V1
						C56.9,0.4,57.4,0,57.9,0z"/>
					<path id="Rectangle_62" class="st14" d="M64.2,0l3.3,0c0.6,0,1,0.4,1,1v3.3c0,0.6-0.4,1-1,1h-3.3c-0.6,0-1-0.4-1-1V1
						C63.2,0.4,63.7,0,64.2,0z"/>
				</g>
				<path id="Path_55" class="st15" d="M81.5,0l6.9,0c0.6,0,1.1,0.5,1.1,1.1v3.1c0,0.6-0.5,1.1-1.1,1.1h-6.9c-0.6,0-1.1-0.5-1.1-1.1
					V1.1C80.4,0.5,80.9,0,81.5,0L81.5,0L81.5,0z"/>
			</g>
			<g id="Group_7" transform="translate(1.531 29.627)">
				<path id="Rectangle_63" class="st14" d="M1,0l3.3,0c0.6,0,1,0.4,1,1v3.3c0,0.6-0.4,1-1,1H1c-0.6,0-1-0.4-1-1L0,1
					C0,0.4,0.4,0,1,0z"/>
				<path id="Rectangle_64" class="st14" d="M7.3,0l3.3,0c0.6,0,1,0.4,1,1v3.3c0,0.6-0.4,1-1,1H7.3c-0.6,0-1-0.4-1-1V1
					C6.3,0.4,6.8,0,7.3,0z"/>
				<path id="Rectangle_65" class="st14" d="M13.6,0L17,0c0.6,0,1,0.4,1,1v3.3c0,0.6-0.4,1-1,1h-3.3c-0.6,0-1-0.4-1-1V1
					C12.6,0.4,13.1,0,13.6,0z"/>
				<path id="Rectangle_66" class="st14" d="M20,0l3.3,0c0.6,0,1,0.4,1,1v3.3c0,0.6-0.4,1-1,1H20c-0.6,0-1-0.4-1-1V1
					C19,0.4,19.4,0,20,0z"/>
				<path id="Path_56" class="st15" d="M26.4,0l30.4,0c0.6,0,1.1,0.5,1.1,1.1v3.2c0,0.6-0.5,1.1-1.1,1.1l0,0H26.4
					c-0.6,0-1.1-0.5-1.1-1.1V1.1C25.3,0.5,25.8,0,26.4,0L26.4,0z M60,0l3.9,0C64.5,0,65,0.5,65,1.1v3.2c0,0.6-0.5,1.1-1.1,1.1H60
					c-0.6,0-1.1-0.5-1.1-1.1V1.1C58.9,0.5,59.4,0,60,0z"/>
				<path id="Rectangle_67" class="st14" d="M67,0l3.3,0c0.6,0,1,0.4,1,1v3.3c0,0.6-0.4,1-1,1H67c-0.6,0-1-0.4-1-1V1
					C66,0.4,66.5,0,67,0z"/>
				<path id="Rectangle_68" class="st14" d="M73.3,0l3.3,0c0.6,0,1,0.4,1,1v3.3c0,0.6-0.4,1-1,1h-3.3c-0.6,0-1-0.4-1-1V1
					C72.3,0.4,72.8,0,73.3,0z"/>
				<path id="Rectangle_69" class="st14" d="M85.2,0l3.3,0c0.6,0,1,0.4,1,1v3.3c0,0.6-0.4,1-1,1h-3.3c-0.6,0-1-0.4-1-1V1
					C84.2,0.4,84.6,0,85.2,0z"/>
				<path id="Path_57" class="st14" d="M78.3,2.3V1.1c0-0.6,0.5-1.1,1.1-1.1l3.2,0c0.6,0,1.1,0.5,1.1,1.1l0,0v1.2
					C83.7,2.3,78.3,2.3,78.3,2.3z"/>
				<path id="Path_58" class="st14" d="M83.6,3.1v1.2c0,0.6-0.5,1.1-1.1,1.1h-3.2c-0.6,0-1.1-0.5-1.1-1.1l0,0V3.1H83.6z"/>
			</g>
			<path id="Rectangle_70" class="st14" d="M3,1.2l86.8,0c0.6,0,1.1,0.5,1.1,1.1v0.2c0,0.6-0.5,1.1-1.1,1.1L3,3.6
				c-0.6,0-1.1-0.5-1.1-1.1V2.3C1.9,1.7,2.4,1.2,3,1.2z"/>
			<path id="Rectangle_71" class="st16" d="M4.8,1.6h3.5C8.7,1.6,9,1.9,9,2.3v0.1c0,0.4-0.3,0.7-0.7,0.7H4.8c-0.4,0-0.7-0.3-0.7-0.7
				V2.3C4.1,1.9,4.4,1.6,4.8,1.6z"/>
			<path id="Rectangle_72" class="st16" d="M11.6,1.6h3.5c0.4,0,0.7,0.3,0.7,0.7v0.1c0,0.4-0.3,0.7-0.7,0.7h-3.5
				c-0.4,0-0.7-0.3-0.7-0.7V2.3C10.9,1.9,11.2,1.6,11.6,1.6z"/>
			<path id="Rectangle_73" class="st16" d="M16.9,1.6h3.5c0.4,0,0.7,0.3,0.7,0.7v0.1c0,0.4-0.3,0.7-0.7,0.7h-3.5
				c-0.4,0-0.7-0.3-0.7-0.7V2.3C16.2,1.9,16.5,1.6,16.9,1.6z"/>
			<path id="Rectangle_74" class="st16" d="M22.1,1.6h3.5c0.4,0,0.7,0.3,0.7,0.7v0.1c0,0.4-0.3,0.7-0.7,0.7h-3.5
				c-0.4,0-0.7-0.3-0.7-0.7V2.3C21.4,1.9,21.7,1.6,22.1,1.6z"/>
			<path id="Rectangle_75" class="st16" d="M27.4,1.6h3.5c0.4,0,0.7,0.3,0.7,0.7v0.1c0,0.4-0.3,0.7-0.7,0.7h-3.5
				c-0.4,0-0.7-0.3-0.7-0.7V2.3C26.7,1.9,27,1.6,27.4,1.6z"/>
			<path id="Rectangle_76" class="st16" d="M34,1.6l3.5,0c0.4,0,0.7,0.3,0.7,0.7v0.1c0,0.4-0.3,0.7-0.7,0.7H34
				c-0.4,0-0.7-0.3-0.7-0.7V2.3C33.2,1.9,33.6,1.6,34,1.6z"/>
			<path id="Rectangle_77" class="st16" d="M39.2,1.6h3.5c0.4,0,0.7,0.3,0.7,0.7v0.1c0,0.4-0.3,0.7-0.7,0.7h-3.5
				c-0.4,0-0.7-0.3-0.7-0.7V2.3C38.5,1.9,38.8,1.6,39.2,1.6z"/>
			<path id="Rectangle_78" class="st16" d="M44.5,1.6H48c0.4,0,0.7,0.3,0.7,0.7v0.1c0,0.4-0.3,0.7-0.7,0.7h-3.5
				c-0.4,0-0.7-0.3-0.7-0.7V2.3C43.7,1.9,44.1,1.6,44.5,1.6z"/>
			<path id="Rectangle_79" class="st16" d="M49.7,1.6h3.5c0.4,0,0.7,0.3,0.7,0.7v0.1c0,0.4-0.3,0.7-0.7,0.7l-3.5,0
				c-0.4,0-0.7-0.3-0.7-0.7V2.3C49,1.9,49.3,1.6,49.7,1.6z"/>
			<path id="Rectangle_80" class="st16" d="M56.3,1.6h3.5c0.4,0,0.7,0.3,0.7,0.7v0.1c0,0.4-0.3,0.7-0.7,0.7h-3.5
				c-0.4,0-0.7-0.3-0.7-0.7V2.3C55.5,1.9,55.9,1.6,56.3,1.6z"/>
			<path id="Rectangle_81" class="st16" d="M61.5,1.6H65c0.4,0,0.7,0.3,0.7,0.7v0.1c0,0.4-0.3,0.7-0.7,0.7h-3.5
				c-0.4,0-0.7-0.3-0.7-0.7V2.3C60.8,1.9,61.1,1.6,61.5,1.6z"/>
			<path id="Rectangle_82" class="st16" d="M66.8,1.6h3.5c0.4,0,0.7,0.3,0.7,0.7v0.1c0,0.4-0.3,0.7-0.7,0.7h-3.5
				c-0.4,0-0.7-0.3-0.7-0.7V2.3C66,1.9,66.4,1.6,66.8,1.6z"/>
			<path id="Rectangle_83" class="st16" d="M73.3,1.6h3.5c0.4,0,0.7,0.3,0.7,0.7v0.1c0,0.4-0.3,0.7-0.7,0.7h-3.5
				c-0.4,0-0.7-0.3-0.7-0.7V2.3C72.6,1.9,72.9,1.6,73.3,1.6z"/>
			<path id="Rectangle_84" class="st16" d="M78.6,1.6h3.5c0.4,0,0.7,0.3,0.7,0.7v0.1c0,0.4-0.3,0.7-0.7,0.7h-3.5
				c-0.4,0-0.7-0.3-0.7-0.7V2.3C77.8,1.9,78.2,1.6,78.6,1.6z"/>
			<path id="Rectangle_85" class="st16" d="M83.8,1.6h3.5c0.4,0,0.7,0.3,0.7,0.7v0.1c0,0.4-0.3,0.7-0.7,0.7h-3.5
				c-0.4,0-0.7-0.3-0.7-0.7V2.3C83.1,1.9,83.4,1.6,83.8,1.6z"/>
		</g>
		<path id="Path_59" class="st10" d="M153,153.8c-0.2,0-0.5,0-0.7,0.1c0-0.2-0.1-0.3-0.1-0.5c2.8-1.1,4.1-4.3,3-7.1s-4.3-4.1-7.1-3
			c-0.5,0.2-0.9,0.4-1.3,0.7c-0.1-0.1-0.2-0.2-0.4-0.4c1.8-2.4,1.3-5.8-1.1-7.6c-2.4-1.8-5.8-1.3-7.6,1.1c-0.3,0.4-0.5,0.7-0.7,1.2
			c-0.2,0-0.3-0.1-0.5-0.1c0.5-3-1.5-5.8-4.5-6.3s-5.8,1.5-6.3,4.5c-0.1,0.6-0.1,1.2,0,1.8c-0.2,0-0.3,0.1-0.5,0.1
			c-1.2-2.8-4.4-4.1-7.1-2.9c-2.8,1.2-4.1,4.4-2.9,7.1c0.2,0.4,0.4,0.8,0.7,1.2c-8.6,8.4-8.8,22.3-0.4,30.9s22.3,8.8,30.9,0.4
			c2.9-2.8,4.9-6.4,5.9-10.3c3,0.4,5.7-1.7,6.1-4.7c0.4-3-1.7-5.7-4.7-6.1C153.5,153.8,153.2,153.8,153,153.8"/>
		<path id="Path_60" class="st9" d="M87.4,115.6h43.7V93.7H87.4V115.6z"/>
		<path id="Path_61" class="st10" d="M142.1,107.4c1.5,0,2.7-1.2,2.7-2.7s-1.2-2.7-2.7-2.7l0,0c-0.1,0-0.2,0-0.3,0
			c0-0.1,0-0.2-0.1-0.2c1.4-0.6,2-2.2,1.5-3.6c-0.4-1-1.4-1.7-2.5-1.7c-0.6,0-1.2,0.2-1.6,0.6c-0.1-0.1-0.1-0.1-0.2-0.2
			c0.4-0.5,0.6-1,0.6-1.6c0-1.5-1.2-2.7-2.7-2.7c-1.1,0-2.1,0.7-2.5,1.7c-5.8-1.6-11.8,1.7-13.5,7.5s1.7,11.8,7.5,13.5
			c1.9,0.6,4,0.6,5.9,0c0.6,1.4,2.2,2,3.6,1.4c1-0.4,1.7-1.4,1.7-2.5c0-0.6-0.2-1.2-0.6-1.6c0.1-0.1,0.1-0.1,0.2-0.2
			c0.5,0.4,1.1,0.6,1.6,0.6c1.5,0,2.7-1.2,2.7-2.7c0-1.1-0.7-2.1-1.7-2.5c0-0.1,0-0.2,0.1-0.2C141.8,107.4,141.9,107.4,142.1,107.4"
			/>
		<path id="Path_62" class="st11" d="M153,26.8c-0.2,0-0.4,0-0.5-0.1c-0.2,0-0.3-0.1-0.5-0.2s-0.3-0.2-0.5-0.3
			c-0.1-0.1-0.3-0.2-0.4-0.3c-0.1-0.1-0.2-0.3-0.3-0.4c-0.3-0.4-0.5-1-0.5-1.5c0-0.2,0-0.4,0.1-0.5c0-0.2,0.1-0.3,0.2-0.5
			c0.1-0.2,0.2-0.3,0.3-0.5c0.2-0.3,0.5-0.6,0.8-0.8c0.1-0.1,0.3-0.2,0.5-0.3c0.2-0.1,0.3-0.1,0.5-0.2c0.4-0.1,0.7-0.1,1.1,0
			c0.4,0.1,0.7,0.2,1,0.4c0.1,0.1,0.3,0.2,0.4,0.3c0.1,0.1,0.2,0.3,0.3,0.4s0.2,0.3,0.3,0.5c0.1,0.3,0.2,0.7,0.2,1
			c0,0.7-0.3,1.4-0.8,1.9c-0.1,0.1-0.3,0.2-0.4,0.3C154.1,26.6,153.5,26.8,153,26.8 M174.8,25.4c-0.7,0-1.4-0.3-1.9-0.8
			c-0.1-0.1-0.2-0.3-0.3-0.4c-0.3-0.4-0.5-1-0.5-1.5c0-0.7,0.3-1.4,0.8-1.9c0.1-0.1,0.3-0.2,0.4-0.3c0.1-0.1,0.3-0.2,0.5-0.3
			c0.2-0.1,0.3-0.1,0.5-0.2c0.4-0.1,0.7-0.1,1.1,0c0.4,0.1,0.7,0.2,1,0.4c0.1,0.1,0.3,0.2,0.4,0.3c0.5,0.5,0.8,1.2,0.8,1.9
			c0,0.2,0,0.4-0.1,0.5c0,0.2-0.1,0.3-0.2,0.5c-0.1,0.2-0.2,0.3-0.3,0.5c-0.1,0.1-0.2,0.3-0.3,0.4s-0.3,0.2-0.4,0.3
			C175.9,25.3,175.4,25.4,174.8,25.4"/>
	</g>
</g>
<image style="display:none;overflow:visible;enable-background:new    ;" width="514" height="486" xlink:href="D:\Downloads\new down\global-data-security-personal-data-security-cyber-data-security-online-concept-illustration-internet-security-information-privacy-protection\Screenshot_2022-10-01_162920-removebg-preview.png"  transform="matrix(1.5576 0 0 1.5576 137.4938 -39)">
</image>
</svg>
